<svg xmlns="http://www.w3.org/2000/svg" viewBox="0 0 64 64" role="img" aria-labelledby="title desc">
  <title id="title">面霸练习生</title>
  <desc id="desc">语音波纹和四色综合圆点组成的面试训练品牌图标</desc>
  <rect x="5" y="5" width="54" height="54" rx="16" fill="#202124"/>
  <circle cx="21" cy="20" r="4" fill="#4285F4"/>
  <circle cx="43" cy="20" r="4" fill="#EA4335"/>
  <circle cx="21" cy="44" r="4" fill="#FBBC04"/>
  <circle cx="43" cy="44" r="4" fill="#34A853"/>
  <path d="M18 31c4-4 8-4 12 0s8 4 12 0 8-4 12 0" fill="none" stroke="#fff" stroke-linecap="round" stroke-width="4.6"/>
  <path d="M18 39c4-4 8-4 12 0s8 4 12 0 8-4 12 0" fill="none" stroke="#fff" stroke-linecap="round" stroke-width="4.6" opacity=".9"/>
  <path d="M32 18v28" fill="none" stroke="#E8F0FE" stroke-linecap="round" stroke-width="3.2" opacity=".72"/>
  <rect x="28" y="24" width="8" height="20" rx="4" fill="#E8F0FE"/>
  <path d="M24 38c0 4.4 3.6 8 8 8s8-3.6 8-8" fill="none" stroke="#E8F0FE" stroke-linecap="round" stroke-width="3.2"/>
</svg>
