<svg xmlns="http://www.w3.org/2000/svg" viewBox="0 0 128 128" role="img" aria-labelledby="title desc">
  <title id="title">面霸练习生标志</title>
  <desc id="desc">Google 风格四色节点与面试对话符号组成的产品图标。</desc>
  <defs>
    <filter id="softShadow" x="-16" y="-12" width="160" height="164" color-interpolation-filters="sRGB">
      <feDropShadow dx="0" dy="14" stdDeviation="12" flood-color="#202124" flood-opacity=".16"/>
    </filter>
  </defs>
  <rect x="12" y="12" width="104" height="104" rx="30" fill="#fff" filter="url(#softShadow)"/>
  <rect x="22" y="22" width="84" height="84" rx="24" fill="#F8FAFF" stroke="#DADCE0" stroke-width="2"/>
  <path d="M38 82V54c0-8.284 6.716-15 15-15h22c8.284 0 15 6.716 15 15v16c0 8.284-6.716 15-15 15H56l-16 13c-1.314 1.067-3.254.132-3.254-1.561V82H38Z" fill="#202124"/>
  <path d="M48 63h32" fill="none" stroke="#fff" stroke-linecap="round" stroke-width="8"/>
  <path d="M52 76h19" fill="none" stroke="#fff" stroke-linecap="round" stroke-width="8" opacity=".9"/>
  <circle cx="42" cy="41" r="8" fill="#4285F4"/>
  <circle cx="64" cy="32" r="8" fill="#EA4335"/>
  <circle cx="86" cy="41" r="8" fill="#FBBC04"/>
  <circle cx="98" cy="65" r="8" fill="#34A853"/>
  <path d="M42 41c5.2-5.5 12.4-9 22-9s16.8 3.5 22 9c7 7.4 10.6 15.4 12 24" fill="none" stroke="#E8F0FE" stroke-linecap="round" stroke-width="5"/>
</svg>
