<svg xmlns="http://www.w3.org/2000/svg" viewBox="0 0 128 128" role="img" aria-labelledby="title desc">
  <title id="title">面霸练习生标志</title>
  <desc id="desc">由面试记录卡片、语音波形和评估节点组成的产品图标。</desc>
  <defs>
    <linearGradient id="shell" x1="16" y1="14" x2="114" y2="118" gradientUnits="userSpaceOnUse">
      <stop offset="0" stop-color="#14213d"/>
      <stop offset=".55" stop-color="#07111f"/>
      <stop offset="1" stop-color="#102f36"/>
    </linearGradient>
    <linearGradient id="paper" x1="36" y1="28" x2="96" y2="98" gradientUnits="userSpaceOnUse">
      <stop offset="0" stop-color="#ffffff"/>
      <stop offset="1" stop-color="#edf7ff"/>
    </linearGradient>
    <filter id="markShadow" x="2" y="2" width="124" height="124" color-interpolation-filters="sRGB">
      <feDropShadow dx="0" dy="10" stdDeviation="10" flood-color="#07111f" flood-opacity=".22"/>
    </filter>
  </defs>
  <rect x="10" y="10" width="108" height="108" rx="26" fill="url(#shell)" filter="url(#markShadow)"/>
  <path d="M28 90V40c0-8.837 7.163-16 16-16h38c8.837 0 16 7.163 16 16v42c0 8.837-7.163 16-16 16H49.4L36.8 109.2c-3.23 2.871-8.3.578-8.3-3.747V90H28Z" fill="url(#paper)"/>
  <path d="M44 42h24M44 54h38" fill="none" stroke="#8aa0b5" stroke-linecap="round" stroke-width="6"/>
  <path d="M38 76h9l5.5-20 8.5 39 9-56 8.5 37H91" fill="none" stroke="#0f172a" stroke-linecap="round" stroke-linejoin="round" stroke-width="8"/>
  <path d="M38 76h9l5.5-20 8.5 39 9-56 8.5 37H91" fill="none" stroke="#2f7dff" stroke-linecap="round" stroke-linejoin="round" stroke-width="4"/>
  <circle cx="42" cy="32" r="7" fill="#19c6c4"/>
  <circle cx="90" cy="52" r="7" fill="#d8ff4f"/>
  <circle cx="85" cy="91" r="7" fill="#ff8a3d"/>
  <path d="M32 31c4.7-5.5 11.9-9 20.3-9h27.4c14.5 0 26.3 11.8 26.3 26.3v18.2" fill="none" stroke="#5dd4ff" stroke-linecap="round" stroke-width="4" opacity=".42"/>
</svg>
